<mxfile host="Electron" modified="2023-05-27T15:02:21.726Z" agent="Mozilla/5.0 (Macintosh; Intel Mac OS X 10_15_7) AppleWebKit/537.36 (KHTML, like Gecko) draw.io/21.2.1 Chrome/112.0.5615.87 Electron/24.1.2 Safari/537.36" etag="5fI4m_3WjHrBrBi0qEbl" version="21.2.1" type="device">
  <diagram name="Page-1" id="H1nZVYqxkzLZFgEqRADx">
    <mxGraphModel dx="2960" dy="5380" grid="1" gridSize="10" guides="1" tooltips="1" connect="1" arrows="1" fold="1" page="1" pageScale="1" pageWidth="850" pageHeight="1100" math="0" shadow="0">
      <root>
        <mxCell id="0" />
        <mxCell id="1" parent="0" />
        <mxCell id="AsBp8XiL8Dx4Y6rQVwFH-4745" value="R, W: 114, H: 90, ORDER: 16, GC: {29, 14, 13, 21, 1, 7, 5, 2, 3, 15, 9, 37, 8, 16, 61, 53} " style="text;html=1;strokeColor=none;fillColor=none;align=center;verticalAlign=middle;whiteSpace=wrap;rounded=0;" parent="1" vertex="1">
          <mxGeometry x="50" width="1140" height="30" as="geometry" />
        </mxCell>
        <mxCell id="xj6NK1gsE8NlSzxXYS8M-1" value="" style="group;flipV=1;" vertex="1" connectable="0" parent="1">
          <mxGeometry x="50" y="50" width="1140" height="900" as="geometry" />
        </mxCell>
        <mxCell id="761dnnyQ54j-Cl0NHfQN-4746" value="29" style="rounded=0;whiteSpace=wrap;html=1;" parent="xj6NK1gsE8NlSzxXYS8M-1" vertex="1">
          <mxGeometry y="610" width="290" height="290" as="geometry" />
        </mxCell>
        <mxCell id="761dnnyQ54j-Cl0NHfQN-4747" value="14" style="rounded=0;whiteSpace=wrap;html=1;" parent="xj6NK1gsE8NlSzxXYS8M-1" vertex="1">
          <mxGeometry x="290" y="760" width="140" height="140" as="geometry" />
        </mxCell>
        <mxCell id="761dnnyQ54j-Cl0NHfQN-4748" value="13" style="rounded=0;whiteSpace=wrap;html=1;" parent="xj6NK1gsE8NlSzxXYS8M-1" vertex="1">
          <mxGeometry x="430" y="770" width="130" height="130" as="geometry" />
        </mxCell>
        <mxCell id="761dnnyQ54j-Cl0NHfQN-4749" value="21" style="rounded=0;whiteSpace=wrap;html=1;" parent="xj6NK1gsE8NlSzxXYS8M-1" vertex="1">
          <mxGeometry x="560" y="690" width="210" height="210" as="geometry" />
        </mxCell>
        <mxCell id="761dnnyQ54j-Cl0NHfQN-4750" value="1" style="rounded=0;whiteSpace=wrap;html=1;" parent="xj6NK1gsE8NlSzxXYS8M-1" vertex="1">
          <mxGeometry x="430" y="760" width="10" height="10" as="geometry" />
        </mxCell>
        <mxCell id="761dnnyQ54j-Cl0NHfQN-4751" value="7" style="rounded=0;whiteSpace=wrap;html=1;" parent="xj6NK1gsE8NlSzxXYS8M-1" vertex="1">
          <mxGeometry x="440" y="700" width="70" height="70" as="geometry" />
        </mxCell>
        <mxCell id="761dnnyQ54j-Cl0NHfQN-4752" value="5" style="rounded=0;whiteSpace=wrap;html=1;" parent="xj6NK1gsE8NlSzxXYS8M-1" vertex="1">
          <mxGeometry x="510" y="720" width="50" height="50" as="geometry" />
        </mxCell>
        <mxCell id="761dnnyQ54j-Cl0NHfQN-4753" value="2" style="rounded=0;whiteSpace=wrap;html=1;" parent="xj6NK1gsE8NlSzxXYS8M-1" vertex="1">
          <mxGeometry x="510" y="700" width="20" height="20" as="geometry" />
        </mxCell>
        <mxCell id="761dnnyQ54j-Cl0NHfQN-4754" value="3" style="rounded=0;whiteSpace=wrap;html=1;" parent="xj6NK1gsE8NlSzxXYS8M-1" vertex="1">
          <mxGeometry x="530" y="690" width="30" height="30" as="geometry" />
        </mxCell>
        <mxCell id="761dnnyQ54j-Cl0NHfQN-4755" value="15" style="rounded=0;whiteSpace=wrap;html=1;" parent="xj6NK1gsE8NlSzxXYS8M-1" vertex="1">
          <mxGeometry x="290" y="610" width="150" height="150" as="geometry" />
        </mxCell>
        <mxCell id="761dnnyQ54j-Cl0NHfQN-4756" value="9" style="rounded=0;whiteSpace=wrap;html=1;" parent="xj6NK1gsE8NlSzxXYS8M-1" vertex="1">
          <mxGeometry x="440" y="610" width="90" height="90" as="geometry" />
        </mxCell>
        <mxCell id="761dnnyQ54j-Cl0NHfQN-4757" value="37" style="rounded=0;whiteSpace=wrap;html=1;" parent="xj6NK1gsE8NlSzxXYS8M-1" vertex="1">
          <mxGeometry x="770" y="530" width="370" height="370" as="geometry" />
        </mxCell>
        <mxCell id="761dnnyQ54j-Cl0NHfQN-4758" value="8" style="rounded=0;whiteSpace=wrap;html=1;" parent="xj6NK1gsE8NlSzxXYS8M-1" vertex="1">
          <mxGeometry x="530" y="610" width="80" height="80" as="geometry" />
        </mxCell>
        <mxCell id="761dnnyQ54j-Cl0NHfQN-4759" value="16" style="rounded=0;whiteSpace=wrap;html=1;" parent="xj6NK1gsE8NlSzxXYS8M-1" vertex="1">
          <mxGeometry x="610" y="530" width="160" height="160" as="geometry" />
        </mxCell>
        <mxCell id="761dnnyQ54j-Cl0NHfQN-4760" value="61" style="rounded=0;whiteSpace=wrap;html=1;" parent="xj6NK1gsE8NlSzxXYS8M-1" vertex="1">
          <mxGeometry width="610" height="610" as="geometry" />
        </mxCell>
        <mxCell id="761dnnyQ54j-Cl0NHfQN-4761" value="53" style="rounded=0;whiteSpace=wrap;html=1;" parent="xj6NK1gsE8NlSzxXYS8M-1" vertex="1">
          <mxGeometry x="610" width="530" height="530" as="geometry" />
        </mxCell>
        <mxCell id="xj6NK1gsE8NlSzxXYS8M-3" value="77" style="rounded=0;whiteSpace=wrap;html=1;aspect=fixed;" vertex="1" parent="1">
          <mxGeometry x="1330" y="700" width="770" height="770" as="geometry" />
        </mxCell>
        <mxCell id="xj6NK1gsE8NlSzxXYS8M-4" value="14" style="rounded=0;whiteSpace=wrap;html=1;aspect=fixed;" vertex="1" parent="1">
          <mxGeometry x="2100" y="850" width="140" height="140" as="geometry" />
        </mxCell>
        <mxCell id="xj6NK1gsE8NlSzxXYS8M-5" value="13" style="rounded=0;whiteSpace=wrap;html=1;aspect=fixed;" vertex="1" parent="1">
          <mxGeometry x="2240" y="860" width="130" height="130" as="geometry" />
        </mxCell>
        <mxCell id="xj6NK1gsE8NlSzxXYS8M-6" value="21" style="rounded=0;whiteSpace=wrap;html=1;aspect=fixed;" vertex="1" parent="1">
          <mxGeometry x="2370" y="780" width="210" height="210" as="geometry" />
        </mxCell>
        <mxCell id="xj6NK1gsE8NlSzxXYS8M-7" value="1" style="rounded=0;whiteSpace=wrap;html=1;aspect=fixed;" vertex="1" parent="1">
          <mxGeometry x="2240" y="850" width="10" height="10" as="geometry" />
        </mxCell>
        <mxCell id="xj6NK1gsE8NlSzxXYS8M-8" value="7" style="rounded=0;whiteSpace=wrap;html=1;aspect=fixed;" vertex="1" parent="1">
          <mxGeometry x="2250" y="790" width="70" height="70" as="geometry" />
        </mxCell>
        <mxCell id="xj6NK1gsE8NlSzxXYS8M-9" value="5" style="rounded=0;whiteSpace=wrap;html=1;aspect=fixed;" vertex="1" parent="1">
          <mxGeometry x="2320" y="810" width="50" height="50" as="geometry" />
        </mxCell>
        <mxCell id="xj6NK1gsE8NlSzxXYS8M-10" value="2" style="rounded=0;whiteSpace=wrap;html=1;aspect=fixed;" vertex="1" parent="1">
          <mxGeometry x="2320" y="790" width="20" height="20" as="geometry" />
        </mxCell>
        <mxCell id="xj6NK1gsE8NlSzxXYS8M-11" value="3" style="rounded=0;whiteSpace=wrap;html=1;aspect=fixed;" vertex="1" parent="1">
          <mxGeometry x="2340" y="780" width="30" height="30" as="geometry" />
        </mxCell>
        <mxCell id="xj6NK1gsE8NlSzxXYS8M-12" value="15" style="rounded=0;whiteSpace=wrap;html=1;aspect=fixed;" vertex="1" parent="1">
          <mxGeometry x="2100" y="700" width="150" height="150" as="geometry" />
        </mxCell>
        <mxCell id="xj6NK1gsE8NlSzxXYS8M-13" value="9" style="rounded=0;whiteSpace=wrap;html=1;aspect=fixed;" vertex="1" parent="1">
          <mxGeometry x="2250" y="700" width="90" height="90" as="geometry" />
        </mxCell>
        <mxCell id="xj6NK1gsE8NlSzxXYS8M-14" value="85" style="rounded=0;whiteSpace=wrap;html=1;aspect=fixed;" vertex="1" parent="1">
          <mxGeometry x="2580" y="620" width="850" height="850" as="geometry" />
        </mxCell>
        <mxCell id="xj6NK1gsE8NlSzxXYS8M-15" value="8" style="rounded=0;whiteSpace=wrap;html=1;aspect=fixed;" vertex="1" parent="1">
          <mxGeometry x="2340" y="700" width="80" height="80" as="geometry" />
        </mxCell>
        <mxCell id="xj6NK1gsE8NlSzxXYS8M-16" value="16" style="rounded=0;whiteSpace=wrap;html=1;aspect=fixed;" vertex="1" parent="1">
          <mxGeometry x="2420" y="620" width="160" height="160" as="geometry" />
        </mxCell>
        <mxCell id="xj6NK1gsE8NlSzxXYS8M-17" value="109" style="rounded=0;whiteSpace=wrap;html=1;aspect=fixed;" vertex="1" parent="1">
          <mxGeometry x="1330" y="-390" width="1090" height="1090" as="geometry" />
        </mxCell>
        <mxCell id="xj6NK1gsE8NlSzxXYS8M-18" value="101" style="rounded=0;whiteSpace=wrap;html=1;aspect=fixed;" vertex="1" parent="1">
          <mxGeometry x="2420" y="-390" width="1010" height="1010" as="geometry" />
        </mxCell>
        <mxCell id="xj6NK1gsE8NlSzxXYS8M-19" value="48" style="rounded=0;whiteSpace=wrap;html=1;aspect=fixed;" vertex="1" parent="1">
          <mxGeometry x="2100" y="990" width="480" height="480" as="geometry" />
        </mxCell>
      </root>
    </mxGraphModel>
  </diagram>
</mxfile>
